<svg width="182" height="55" viewBox="0 0 182 55" fill="none" xmlns="http://www.w3.org/2000/svg">
<g clip-path="url(#clip0_2_2877)">
<path d="M31.1138 41.9181C24.32 41.9181 20.3149 37.6741 20.3149 30.4821C20.3149 23.4156 24.4039 18.8579 30.8203 18.8579C36.9011 18.8579 41.0529 23.1647 41.0529 29.1859C41.0529 30.733 40.1723 31.6529 38.6206 31.6529H25.5152V31.8202C25.5152 35.5207 27.675 37.904 31.0719 37.904C33.4204 37.904 34.9511 37.0887 36.6286 34.9562C37.1737 34.3499 37.656 34.1199 38.39 34.1199C39.5642 34.1199 40.4868 34.8726 40.4868 36.127C40.4868 36.5242 40.3609 36.9841 40.1303 37.4441C38.6625 40.2665 35.3495 41.9181 31.1138 41.9181ZM25.5572 28.2242H35.9366C35.8317 25.0045 33.7769 22.893 30.8413 22.893C27.9056 22.893 25.7668 25.0463 25.5572 28.2242ZM47.029 41.8973C45.4983 41.8973 44.4289 40.9146 44.4289 39.1584V21.513C44.4289 19.9033 45.3725 18.8789 46.9241 18.8789C48.4549 18.8789 49.5033 19.9033 49.5033 21.513V23.0602H49.6081C50.8034 20.4259 53.1099 18.8997 56.5278 18.8997C61.4344 18.8997 64.2233 22.0358 64.2233 27.158V39.1584C64.2233 40.9146 63.1539 41.8973 61.6232 41.8973C60.0924 41.8973 59.0021 40.9146 59.0021 39.1584V28.2032C59.0021 25.0673 57.5343 23.3111 54.5567 23.3111C51.5582 23.3111 49.6501 25.4645 49.6501 28.6423V39.1584C49.6501 40.9146 48.5597 41.8973 47.029 41.8973Z" fill="white"/>
<g filter="url(#filter0_d_2_2877)">
<path d="M108.589 48.7077V34.5106C105.368 37.4094 100.13 41.1834 97.9135 42.7081C87.4695 49.7888 79.4902 49.6582 76.806 48.7077C66.1669 45.3336 68.9567 34.2333 71.6816 29.1049C76.4155 19.2678 85.123 12.096 88.8846 9.73973C101.964 1.13828 110.155 3.5421 112.616 5.81919C117.105 9.14571 116.397 14.9276 115.483 17.4027L108.04 17.4621C111.212 9.00314 104.319 9.77934 100.475 11.2248C93.3017 13.2207 85.2854 21.5608 82.1746 25.4813C76.806 32.372 76.3586 37.1044 76.806 38.6093C77.1476 43.5041 84.2688 41.322 87.7868 39.6191C93.6433 37.3856 100.313 31.679 102.916 29.1049H88.8846V21.9172H115.787V48.7077H108.589Z" fill="#14ADC6"/>
</g>
<path d="M127.758 41.8345C123.46 41.8345 120.335 39.1376 120.335 35.1443C120.335 31.2138 123.376 28.8514 128.785 28.5169L134.678 28.1824V26.5934C134.678 24.2727 133.105 22.9347 130.526 22.9347C128.492 22.9347 127.171 23.6247 125.871 25.5272C125.326 26.2381 124.634 26.5726 123.753 26.5726C122.474 26.5726 121.551 25.7363 121.551 24.4819C121.551 24.001 121.677 23.541 121.908 23.0602C123.04 20.4886 126.479 18.8579 130.736 18.8579C136.251 18.8579 139.836 21.7639 139.836 26.2171V39.2839C139.836 40.9565 138.767 41.8973 137.299 41.8973C135.873 41.8973 134.887 41.0401 134.803 39.4929V37.9459H134.699C133.42 40.3501 130.631 41.8345 127.758 41.8345ZM129.352 37.904C132.287 37.904 134.678 35.9388 134.678 33.2628V31.5693L129.519 31.8828C127.003 32.0501 125.556 33.1791 125.556 34.9353C125.556 36.7542 127.087 37.904 129.352 37.904ZM145.791 41.4791C144.344 41.4791 143.422 40.622 143.422 39.2839C143.422 38.5522 143.61 38.0504 144.177 37.3605L154.954 23.4574V23.3738H145.435C144.072 23.3738 143.275 22.6211 143.275 21.3249C143.275 20.0496 144.072 19.3179 145.435 19.3179H158.351C160.008 19.3179 160.993 20.2169 160.993 21.6803C160.993 22.4748 160.742 23.0811 160.071 23.9592L149.922 37.3186V37.4232H159.295C160.658 37.4232 161.455 38.1549 161.455 39.4512C161.455 40.7265 160.658 41.4791 159.295 41.4791H145.791Z" fill="white"/>
</g>
<defs>
<filter id="filter0_d_2_2877" x="65.1929" y="3.67969" width="54.9697" height="53.4934" filterUnits="userSpaceOnUse" color-interpolation-filters="sRGB">
<feFlood flood-opacity="0" result="BackgroundImageFix"/>
<feColorMatrix in="SourceAlpha" type="matrix" values="0 0 0 0 0 0 0 0 0 0 0 0 0 0 0 0 0 0 127 0" result="hardAlpha"/>
<feOffset dy="4"/>
<feGaussianBlur stdDeviation="2"/>
<feComposite in2="hardAlpha" operator="out"/>
<feColorMatrix type="matrix" values="0 0 0 0 0 0 0 0 0 0 0 0 0 0 0 0 0 0 0.22 0"/>
<feBlend mode="normal" in2="BackgroundImageFix" result="effect1_dropShadow_2_2877"/>
<feBlend mode="normal" in="SourceGraphic" in2="effect1_dropShadow_2_2877" result="shape"/>
</filter>
<clipPath id="clip0_2_2877">
<rect width="155" height="54.8596" fill="white" transform="translate(13.5)"/>
</clipPath>
</defs>
</svg>
